# xmcd CD database file
#
# Track frame offsets:
#	172
#	23940
#	49120
#	73680
#	95565
#	115075
#	136807
#	156937
#	180477
#	198972
#
# Disc length: 2900 seconds
#
# Revision: 1
# Processed by: cddbd v1.5PL3 Copyright (c) Steve Scherf et al.
# Submitted via: CDex 1.51
#
DISCID=830b520a
DTITLE=Chick Willis - Holdin' Hands with the Blues
DYEAR=1992
DGENRE=Blues
TTITLE0=Holdin' Hands with the Blues
TTITLE1=You're Gonna Miss Me
TTITLE2=That's How Much I Love You, Sweetheart
TTITLE3=Millie (The Fine Filly)
TTITLE4=Finders Keepers
TTITLE5=Going back to Rock and Roll
TTITLE6=Selfish Lover
TTITLE7=Heavens to Betsy
TTITLE8=One Slick Woman
TTITLE9=I'm Only Guilty of Loving You
EXTD=YEAR: 1992
EXTT0=
EXTT1=
EXTT2=
EXTT3=
EXTT4=
EXTT5=
EXTT6=
EXTT7=
EXTT8=
EXTT9=
PLAYORDER=
